<?xml version="1.0" standalone="no"?>
<!DOCTYPE svg PUBLIC "-//W3C//DTD SVG 20010904//EN"
 "http://www.w3.org/TR/2001/REC-SVG-20010904/DTD/svg10.dtd">
<svg version="1.0" xmlns="http://www.w3.org/2000/svg"
 width="512.000000pt" height="512.000000pt" viewBox="0 0 512.000000 512.000000"
 preserveAspectRatio="xMidYMid meet">
<metadata>
Created by potrace 1.14, written by Peter Selinger 2001-2017
</metadata>
<g transform="translate(0.000000,512.000000) scale(0.100000,-0.100000)"
fill="#000000" stroke="none">
<path d="M2315 5109 c-800 -83 -1501 -518 -1927 -1196 -487 -774 -516 -1777
-75 -2578 200 -364 487 -676 841 -913 238 -159 600 -311 876 -366 214 -43 295
-51 530 -51 236 0 333 10 532 51 880 184 1615 842 1898 1702 92 278 125 491
125 802 0 301 -32 513 -116 775 -124 390 -330 728 -622 1024 -399 404 -893
653 -1462 737 -123 18 -478 26 -600 13z m-1035 -2377 c0 -370 4 -397 74 -467
53 -52 99 -68 181 -63 86 5 147 43 189 118 l31 55 3 338 3 337 70 0 69 0 0
-485 0 -485 -70 0 -70 0 0 45 0 45 -46 -35 c-64 -49 -138 -68 -238 -63 -99 5
-157 29 -224 92 -65 61 -101 136 -112 239 -6 45 -10 209 -10 365 l0 282 75 0
75 0 0 -318z m870 148 c0 -93 3 -170 6 -170 3 0 20 11 38 25 79 60 182 82 286
61 86 -18 142 -49 196 -108 169 -183 117 -471 -104 -580 -55 -27 -80 -34 -149
-37 -98 -4 -163 15 -229 65 l-44 34 0 -45 0 -45 -70 0 -70 0 0 485 0 485 70 0
70 0 0 -170z m1177 -102 c124 -46 209 -168 220 -314 l6 -74 -288 0 -287 0 6
-31 c3 -17 18 -48 33 -69 87 -120 248 -134 365 -31 l35 31 47 -36 c45 -34 46
-35 30 -59 -9 -14 -42 -42 -75 -64 -195 -130 -477 -46 -560 167 -31 80 -31
195 1 277 31 80 123 173 200 203 76 29 189 29 267 0z m653 -42 l0 -64 -53 -6
c-71 -9 -114 -37 -137 -89 -17 -37 -20 -67 -20 -269 l0 -228 -70 0 -70 0 0
355 0 355 70 0 70 0 0 -35 0 -36 38 30 c36 30 90 48 145 50 27 1 27 0 27 -63z"/>
<path d="M2311 2666 c-48 -17 -108 -71 -133 -119 -31 -58 -31 -165 -1 -222 28
-52 67 -89 123 -114 176 -80 376 88 330 278 -34 141 -186 225 -319 177z"/>
<path d="M3110 2664 c-19 -8 -48 -27 -63 -42 -28 -27 -67 -91 -67 -112 0 -6
73 -10 214 -10 l214 0 -10 35 c-35 113 -178 177 -288 129z"/>
</g>
</svg>
